<?xml version="1.0" encoding="UTF-8" standalone="no"?>
<!DOCTYPE svg PUBLIC "-//W3C//DTD SVG 1.1//EN" "http://www.w3.org/Graphics/SVG/1.1/DTD/svg11.dtd">
<svg width="450"
    height="173" viewBox="0 0 450 173" version="1.1" xmlns="http://www.w3.org/2000/svg"
    xmlns:xlink="http://www.w3.org/1999/xlink" xml:space="preserve" xmlns:serif="http://www.serif.com/"
    style="fill-rule:evenodd;clip-rule:evenodd;stroke-linecap:round;stroke-linejoin:round;stroke-miterlimit:1.5;">
    <rect id="Artboard1" x="0" y="0" width="450" height="172.5" style="fill:none;" />
    <g>
        <rect x="97.58" y="22.945" width="77.749" height="123.131" style="fill:#ffb9ee;" />
        <g>
            <g>
                <path
                    d="M219.778,71.593l-25.555,0l0,-3.938l18.444,-23.259l-18.047,0l0,-4.448l24.676,0l0,3.796l-18.528,23.345l19.01,0l0,4.504Z"
                    style="fill-rule:nonzero;" />
                <path
                    d="M253.548,71.593l-5.326,0l0,-3.513c-1.795,1.417 -3.513,2.503 -5.156,3.258c-1.644,0.756 -3.457,1.134 -5.44,1.134c-3.324,0 -5.912,-1.016 -7.763,-3.046c-1.851,-2.03 -2.776,-5.01 -2.776,-8.938l0,-20.54l5.326,0l0,18.018c0,1.606 0.076,2.98 0.227,4.122c0.151,1.143 0.472,2.12 0.963,2.933c0.51,0.831 1.171,1.435 1.983,1.813c0.812,0.378 1.993,0.566 3.542,0.566c1.378,0 2.885,-0.358 4.518,-1.076c1.634,-0.718 3.159,-1.634 4.576,-2.748l0,-23.628l5.326,0l0,31.645Z"
                    style="fill-rule:nonzero;" />
                <path
                    d="M287.432,69.61c-1.776,0.85 -3.461,1.511 -5.057,1.983c-1.596,0.473 -3.292,0.709 -5.086,0.709c-2.285,0 -4.382,-0.336 -6.289,-1.006c-1.908,-0.671 -3.542,-1.686 -4.902,-3.046c-1.378,-1.36 -2.445,-3.078 -3.201,-5.156c-0.755,-2.077 -1.133,-4.504 -1.133,-7.281c0,-5.175 1.421,-9.236 4.264,-12.182c2.842,-2.947 6.596,-4.42 11.261,-4.42c1.813,0 3.593,0.255 5.341,0.765c1.747,0.51 3.347,1.133 4.802,1.87l0,5.921l-0.284,0c-1.624,-1.265 -3.3,-2.238 -5.028,-2.918c-1.729,-0.68 -3.414,-1.02 -5.057,-1.02c-3.022,0 -5.407,1.015 -7.154,3.046c-1.747,2.03 -2.621,5.01 -2.621,8.938c0,3.815 0.855,6.748 2.564,8.797c1.71,2.049 4.113,3.074 7.211,3.074c1.076,0 2.172,-0.142 3.286,-0.425c1.114,-0.284 2.115,-0.652 3.003,-1.105c0.774,-0.397 1.501,-0.817 2.181,-1.261c0.68,-0.444 1.219,-0.826 1.615,-1.147l0.284,0l0,5.864Z"
                    style="fill-rule:nonzero;" />
                <path
                    d="M322.987,71.593l-7.026,0l-12.692,-13.853l-3.457,3.286l0,10.567l-5.326,0l0,-44.082l5.326,0l0,28.274l15.384,-15.837l6.714,0l-14.704,14.619l15.781,17.026Z"
                    style="fill-rule:nonzero;" />
                <path
                    d="M354.519,56.323l-23.316,0c0,1.945 0.292,3.641 0.878,5.085c0.585,1.445 1.388,2.63 2.408,3.556c0.982,0.907 2.148,1.586 3.499,2.04c1.35,0.453 2.838,0.68 4.462,0.68c2.153,0 4.32,-0.43 6.502,-1.289c2.181,-0.86 3.735,-1.705 4.66,-2.536l0.284,0l0,5.808c-1.795,0.755 -3.627,1.388 -5.497,1.898c-1.869,0.51 -3.834,0.765 -5.892,0.765c-5.251,0 -9.349,-1.421 -12.296,-4.264c-2.946,-2.842 -4.419,-6.879 -4.419,-12.111c0,-5.175 1.411,-9.283 4.235,-12.324c2.824,-3.041 6.54,-4.561 11.148,-4.561c4.269,0 7.56,1.246 9.873,3.739c2.314,2.493 3.471,6.035 3.471,10.624l0,2.89Zm-5.185,-4.08c-0.018,-2.795 -0.722,-4.957 -2.11,-6.487c-1.388,-1.53 -3.499,-2.295 -6.332,-2.295c-2.852,0 -5.123,0.84 -6.814,2.521c-1.69,1.681 -2.649,3.768 -2.875,6.261l18.131,0Z"
                    style="fill-rule:nonzero;" />
                <path
                    d="M382.34,45.756l-0.284,0c-0.793,-0.189 -1.562,-0.326 -2.308,-0.411c-0.747,-0.085 -1.63,-0.128 -2.649,-0.128c-1.644,0 -3.23,0.364 -4.76,1.091c-1.53,0.727 -3.003,1.667 -4.42,2.819l0,22.466l-5.326,0l0,-31.645l5.326,0l0,4.674c2.116,-1.699 3.981,-2.903 5.596,-3.612c1.615,-0.708 3.263,-1.062 4.943,-1.062c0.926,0 1.596,0.023 2.012,0.071c0.415,0.047 1.039,0.137 1.87,0.269l0,5.468Z"
                    style="fill-rule:nonzero;" />
            </g>
            <g>
                <path
                    d="M284.652,128.463c0,6.063 -1.377,10.515 -4.132,13.355c-2.754,2.839 -6.992,4.259 -12.714,4.259c-1.9,0 -3.752,-0.134 -5.556,-0.4c-1.804,-0.267 -3.581,-0.646 -5.332,-1.137l0,-6.149l0.32,0c0.982,0.384 2.541,0.859 4.676,1.425c2.135,0.566 4.27,0.849 6.405,0.849c2.049,0 3.747,-0.246 5.092,-0.737c1.345,-0.491 2.391,-1.174 3.138,-2.05c0.748,-0.832 1.281,-1.836 1.602,-3.01c0.32,-1.174 0.48,-2.487 0.48,-3.939l0,-3.267c-1.815,1.452 -3.55,2.536 -5.204,3.251c-1.655,0.715 -3.763,1.073 -6.325,1.073c-4.27,0 -7.659,-1.543 -10.168,-4.628c-2.509,-3.085 -3.763,-7.435 -3.763,-13.05c0,-3.074 0.432,-5.727 1.297,-7.958c0.865,-2.231 2.044,-4.158 3.539,-5.781c1.388,-1.516 3.074,-2.695 5.06,-3.539c1.985,-0.843 3.96,-1.265 5.924,-1.265c2.071,0 3.806,0.209 5.204,0.625c1.399,0.416 2.877,1.051 4.436,1.905l0.384,-1.537l5.637,0l0,31.705Zm-6.021,-5.764l0,-19.504c-1.601,-0.726 -3.09,-1.243 -4.468,-1.553c-1.377,-0.31 -2.748,-0.464 -4.115,-0.464c-3.309,0 -5.914,1.11 -7.814,3.33c-1.9,2.221 -2.85,5.445 -2.85,9.672c0,4.014 0.704,7.056 2.113,9.127c1.41,2.071 3.747,3.106 7.014,3.106c1.751,0 3.507,-0.336 5.268,-1.008c1.762,-0.673 3.379,-1.575 4.852,-2.706Z"
                    style="fill-rule:nonzero;" />
                <path
                    d="M318.822,103.323l-0.32,0c-0.896,-0.213 -1.766,-0.368 -2.61,-0.464c-0.843,-0.096 -1.841,-0.144 -2.994,-0.144c-1.858,0 -3.651,0.411 -5.38,1.233c-1.73,0.822 -3.395,1.884 -4.996,3.186l0,25.396l-6.021,0l0,-35.772l6.021,0l0,5.284c2.391,-1.921 4.499,-3.282 6.325,-4.083c1.825,-0.8 3.688,-1.201 5.588,-1.201c1.046,0 1.804,0.027 2.274,0.08c0.47,0.054 1.174,0.155 2.113,0.304l0,6.181Z"
                    style="fill-rule:nonzero;" />
                <path
                    d="M351.136,132.53l-5.989,0l0,-3.811c-0.534,0.363 -1.254,0.87 -2.162,1.521c-0.907,0.652 -1.788,1.169 -2.642,1.554c-1.003,0.491 -2.156,0.902 -3.458,1.233c-1.303,0.331 -2.829,0.496 -4.58,0.496c-3.224,0 -5.957,-1.067 -8.198,-3.202c-2.242,-2.135 -3.363,-4.858 -3.363,-8.167c0,-2.711 0.582,-4.905 1.745,-6.581c1.164,-1.676 2.824,-2.994 4.98,-3.955c2.178,-0.961 4.793,-1.612 7.846,-1.954c3.053,-0.341 6.331,-0.597 9.832,-0.768l0,-0.929c0,-1.366 -0.24,-2.498 -0.72,-3.395c-0.481,-0.896 -1.169,-1.601 -2.066,-2.113c-0.854,-0.491 -1.879,-0.822 -3.074,-0.993c-1.196,-0.171 -2.445,-0.256 -3.747,-0.256c-1.58,0 -3.342,0.208 -5.285,0.624c-1.942,0.416 -3.949,1.02 -6.02,1.81l-0.321,0l0,-6.117c1.175,-0.32 2.872,-0.673 5.092,-1.057c2.221,-0.384 4.409,-0.576 6.566,-0.576c2.519,0 4.713,0.208 6.581,0.624c1.868,0.416 3.485,1.126 4.852,2.13c1.345,0.982 2.369,2.252 3.074,3.811c0.705,1.558 1.057,3.49 1.057,5.796l0,24.275Zm-5.989,-8.807l0,-9.959c-1.836,0.106 -3.998,0.266 -6.485,0.48c-2.487,0.213 -4.457,0.523 -5.909,0.929c-1.729,0.491 -3.127,1.254 -4.195,2.289c-1.067,1.036 -1.601,2.461 -1.601,4.276c0,2.049 0.619,3.592 1.857,4.627c1.239,1.036 3.128,1.554 5.669,1.554c2.113,0 4.046,-0.411 5.796,-1.233c1.751,-0.822 3.374,-1.81 4.868,-2.963Z"
                    style="fill-rule:nonzero;" />
                <path
                    d="M392.256,90.769l-6.661,0l0,-6.244l6.661,0l0,6.244Zm-0.544,41.761l-6.021,0l0,-30.808l-16.621,0l0,30.808l-6.021,0l0,-30.712l-4.067,0l0,-5.06l4.067,0l0,-1.569c0,-4.121 1.068,-7.286 3.203,-9.495c2.135,-2.21 5.156,-3.315 9.063,-3.315c1.323,0 2.524,0.069 3.603,0.208c1.078,0.139 2.055,0.283 2.93,0.432l0,5.445l-0.32,0c-0.598,-0.171 -1.463,-0.363 -2.594,-0.577c-1.132,-0.213 -2.061,-0.32 -2.787,-0.32c-2.583,0 -4.44,0.571 -5.572,1.713c-1.131,1.143 -1.697,3.208 -1.697,6.197l0,1.281l22.834,0l0,35.772Z"
                    style="fill-rule:nonzero;" />
                <path
                    d="M436.195,132.53l-7.943,0l-14.347,-15.66l-3.907,3.715l0,11.945l-6.021,0l0,-49.831l6.021,0l0,31.961l17.39,-17.902l7.59,0l-16.621,16.525l17.838,19.247Z"
                    style="fill-rule:nonzero;" />
            </g>
            <g>
                <g>
                    <path
                        d="M175.318,148.374l-74.955,12.671l-35.441,-47.707l24.565,-64.502l60.337,-16.88l-21.17,58.642l46.664,57.776Z"
                        style="fill:#fff;stroke:#1c1c1c;stroke-width:0.75px;" />
                    <path d="M128.654,90.598l-63.732,22.74" style="fill:none;stroke:#1c1c1c;stroke-width:0.75px;" />
                    <path d="M175.318,148.374l22.683,-55.561l-48.582,-61.466"
                        style="fill:#fff;stroke:#1c1c1c;stroke-width:0.75px;" />
                </g>
                <g>
                    <path
                        d="M52.645,11.455l75.179,11.273l18.842,56.364l-43.41,53.661l-62.595,-2.726l38.361,-49.147l-26.377,-69.425Z"
                        style="fill:#fff;stroke:#1c1c1c;stroke-width:0.75px;" />
                    <path d="M79.022,80.88l67.644,-1.788" style="fill:none;stroke:#1c1c1c;stroke-width:0.75px;" />
                    <path d="M52.645,11.455l-38.84,45.749l27.053,73.528"
                        style="fill:#fff;stroke:#1c1c1c;stroke-width:0.75px;" />
                </g>
            </g>
        </g>
    </g>
</svg>